<?xml version="1.0" encoding="iso-8859-1"?>
<!-- Generator: Adobe Illustrator 19.0.0, SVG Export Plug-In . SVG Version: 6.00 Build 0)  -->
<svg version="1.1" id="Layer_1" xmlns="http://www.w3.org/2000/svg" xmlns:xlink="http://www.w3.org/1999/xlink" x="0px" y="0px"
	 viewBox="0 0 512 512" style="enable-background:new 0 0 512 512;" xml:space="preserve">
<g>
	<g>
		<path d="M491.758,42.727V21.398c0-11.727-9.594-21.32-21.328-21.32L160.117,0c-11.719,0-21.313,9.594-21.313,21.32v17.633
			c0,9.25,5.969,17.172,14.25,20.109c12.75,57.492,40.328,216-24.609,283.828c-33.719,35.203-105.031,26.453-108.203,81.422
			l0.094,29.797c1.156,11.703,26.688,19.156,64.016,23.453l0.016,4.469C86.539,504.109,170.648,512,261.43,512
			c107.609,0,224.641-11.078,225.938-22.75l-0.016-35.063l-0.063-0.125c0.016-0.188,0-0.375-0.047-0.563
			c-24.578-118.344-19.234-171.844-10.344-390.461C485.492,60.281,491.758,52.203,491.758,42.727z M160.164,38.953
			c-0.016-0.016-0.031-0.023-0.047-0.039V21.359c0.016-0.008,0.031-0.023,0.047-0.039h49.938c0,0.031,0,0.055,0,0.078v17.555
			H160.164z M84.398,450.25l-0.125,0.156l0.016,3.438c0,0.156-0.016,0.328-0.016,0.5c0,0.047,0.016,0.094,0.016,0.125v1.625
			c-26-3.156-37.766-7.031-42.656-9.219l-0.016-8.25c11.094,2.344,25.984,4.219,43.406,5.656
			C84.727,446.188,84.523,448.172,84.398,450.25z M93.352,423.547c-1.469-0.109-2.922-0.219-4.344-0.328
			c-24.547-1.953-38.344-4.328-45.844-6.094c1.766-5.125,4.781-8.219,7.938-10.734c7.938-6.313,20.484-10.922,33.75-15.797
			c19.813-7.25,42.266-15.5,58.984-32.969c21.266-22.188,35.547-53.844,42.438-94.086c5.234-30.516,6.313-66.258,3.188-106.242
			c-3.031-38.875-9.375-73.945-14.297-97.023h44.188c1.813,1.25,3.813,2.227,5.969,2.875
			c13.563,61.336,42.563,229.008-26.219,300.852C170.117,394.266,115.023,393.797,93.352,423.547z M105.648,465.329
			c9.75,2.141,22.453,3.922,37.281,5.359v13.531c-22.546-3.25-32.905-6.953-37.265-9.031L105.648,465.329z M228.227,490.297
			c-23.922-0.578-45.563-1.766-64-3.547v-14.297c19.375,1.328,41.156,2.234,64,2.703V490.297z M313.523,489.844
			c-17.547,0.547-35.141,0.844-52.094,0.844c-4.016,0-7.984-0.031-11.906-0.063v-15.156c6.281,0.063,12.625,0.094,18.984,0.094
			c14.984,0,30.109-0.156,45.016-0.469V489.844z M398.82,485c-19.922,1.719-41.719,3.094-64,4.063v-14.531
			c22.625-0.719,44.375-1.781,64-3.188V485z M268.508,454.234c-42.656,0-81.313-1.281-111.766-3.719
			c-27.469-2.203-42.188-4.844-49.844-6.766c1.875-6.563,5.5-10.344,9.313-13.391c8.594-6.828,22-11.75,36.188-16.953
			c20.891-7.656,44.563-16.359,62.109-34.672c22.375-23.359,37.406-56.734,44.688-99.172c5.547-32.289,6.672-70.117,3.375-112.438
			c-3.234-41.359-10-78.633-15.219-103.078h208.172c-0.828,20.094-1.609,38.875-2.344,55.945
			c-3.625,86.016-6.016,142.852-4.688,191.914c1.219,44.813,5.438,82.563,14.734,130.359c-9.75,2.094-28.109,4.984-61.547,7.484
			C363.211,452.656,315.914,454.234,268.508,454.234z M466.039,476.032c-8.312,1.937-22.937,4.468-45.922,6.937v-13.344
			c18.563-1.719,34.328-3.781,45.922-6.156V476.032z M470.43,42.688c-0.016,0.016-0.031,0.023-0.031,0.039H231.461
			c-0.016-0.016-0.031-0.023-0.047-0.039v-21.25c0.016-0.008,0.031-0.023,0.047-0.039h238.938c0,0.016,0.016,0.031,0.031,0.039
			V42.688z"/>
	</g>
</g>
<g>
</g>
<g>
</g>
<g>
</g>
<g>
</g>
<g>
</g>
<g>
</g>
<g>
</g>
<g>
</g>
<g>
</g>
<g>
</g>
<g>
</g>
<g>
</g>
<g>
</g>
<g>
</g>
<g>
</g>
</svg>
