<?xml version="1.0" encoding="iso-8859-1"?>
<!-- Generator: Adobe Illustrator 19.0.0, SVG Export Plug-In . SVG Version: 6.00 Build 0)  -->
<svg version="1.1" id="Capa_1" xmlns="http://www.w3.org/2000/svg" xmlns:xlink="http://www.w3.org/1999/xlink" x="0px" y="0px"
	 viewBox="0 0 512 512" style="enable-background:new 0 0 512 512;" xml:space="preserve">
<path style="fill:#303C42;" d="M181.333,512c-1.906,0-3.813-0.521-5.51-1.542L69.156,446.125C65.958,444.208,64,440.729,64,437V192
	C64,86.125,150.135,0,256,0s192,86.125,192,192v245c0,3.729-1.958,7.208-5.156,9.125l-106.656,64.333
	c-3.292,1.979-7.406,2.042-10.75,0.167c-3.354-1.896-5.427-5.438-5.427-9.292L320,266.667c0-2.833,1.125-5.542,3.125-7.542
	s4.708-3.125,7.542-3.125C360.073,256,384,232.083,384,202.667V192h-65.937c-11.24,0-20.594,8.792-21.292,20l-8.792,140.667
	c-0.354,5.625-5.01,10-10.646,10h-42.667c-5.635,0-10.292-4.375-10.646-10L215.229,212c-0.698-11.208-10.052-20-21.292-20H128
	v10.667C128,232.083,151.927,256,181.333,256c5.896,0,10.667,4.771,10.667,10.667v234.667c0,3.854-2.073,7.396-5.417,9.292
	C184.948,511.542,183.135,512,181.333,512z"/>
<path style="fill:#DFE1DF;" d="M85.333,430.979l85.333,51.458V276.583c-36.135-5.208-64-36.375-64-73.917v-21.333
	c0-5.896,4.771-10.667,10.667-10.667h76.604c22.479,0,41.188,17.563,42.583,40l8.167,130.667h22.625l8.167-130.667
	c1.396-22.438,20.104-40,42.583-40h76.604c5.896,0,10.667,4.771,10.667,10.667v21.333c0,37.542-27.865,68.708-64,73.917
	l0.01,205.854l85.323-51.458V192c0-94.104-76.563-170.667-170.667-170.667S85.333,97.896,85.333,192L85.333,430.979L85.333,430.979z
	"/>
<polygon style="opacity:0.1;enable-background:new    ;" points="85.333,430.979 170.667,482.438 170.667,442.438 85.333,390.979 
	"/>
<polygon style="opacity:0.1;enable-background:new    ;" points="341.336,276.583 341.333,276.583 341.344,482.438 426.667,430.979 
	426.667,390.979 341.344,442.438 "/>
<path style="opacity:0.2;fill:#FFFFFF;enable-background:new    ;" d="M256,21.333C161.896,21.333,85.333,97.896,85.333,192v29.563
	c0-94.104,76.563-170.667,170.667-170.667s170.667,76.563,170.667,170.667V192C426.667,97.896,350.104,21.333,256,21.333z"/>
<linearGradient id="SVGID_1_" gradientUnits="userSpaceOnUse" x1="-44.2543" y1="637.1743" x2="-24.2643" y2="627.8523" gradientTransform="matrix(21.3333 0 0 -21.3333 998.4986 13763.0791)">
	<stop  offset="0" style="stop-color:#FFFFFF;stop-opacity:0.2"/>
	<stop  offset="1" style="stop-color:#FFFFFF;stop-opacity:0"/>
</linearGradient>
<path style="fill:url(#SVGID_1_);" d="M181.333,512c-1.906,0-3.813-0.521-5.51-1.542L69.156,446.125
	C65.958,444.208,64,440.729,64,437V192C64,86.125,150.135,0,256,0s192,86.125,192,192v245c0,3.729-1.958,7.208-5.156,9.125
	l-106.656,64.333c-3.292,1.979-7.406,2.042-10.75,0.167c-3.354-1.896-5.427-5.438-5.427-9.292L320,266.667
	c0-2.833,1.125-5.542,3.125-7.542s4.708-3.125,7.542-3.125C360.073,256,384,232.083,384,202.667V192h-65.937
	c-11.24,0-20.594,8.792-21.292,20l-8.792,140.667c-0.354,5.625-5.01,10-10.646,10h-42.667c-5.635,0-10.292-4.375-10.646-10
	L215.229,212c-0.698-11.208-10.052-20-21.292-20H128v10.667C128,232.083,151.927,256,181.333,256
	c5.896,0,10.667,4.771,10.667,10.667v234.667c0,3.854-2.073,7.396-5.417,9.292C184.948,511.542,183.135,512,181.333,512z"/>
<g>
</g>
<g>
</g>
<g>
</g>
<g>
</g>
<g>
</g>
<g>
</g>
<g>
</g>
<g>
</g>
<g>
</g>
<g>
</g>
<g>
</g>
<g>
</g>
<g>
</g>
<g>
</g>
<g>
</g>
</svg>
