<svg id="Capa_1" enable-background="new 0 0 512 512" height="512" viewBox="0 0 512 512" width="512" xmlns="http://www.w3.org/2000/svg"><g><g><path d="m256 512c-140.959 0-256-115.049-256-256 0-140.959 115.049-256 256-256 140.959 0 256 115.049 256 256 0 140.959-115.049 256-256 256zm0-482c-124.617 0-226 101.383-226 226s101.383 226 226 226 226-101.383 226-226-101.383-226-226-226z"/></g><g><path d="m256 452c-107.653 0-196-88.367-196-196 0-107.653 88.368-196 196-196 107.653 0 196 88.367 196 196 0 107.653-88.368 196-196 196zm0-362c-91.533 0-166 74.467-166 166s74.467 166 166 166 166-74.467 166-166-74.467-166-166-166z"/></g></g></svg>